<mxfile host="app.diagrams.net" modified="2023-07-30T06:12:55.280Z" agent="Mozilla/5.0 (Windows NT 10.0; Win64; x64; rv:109.0) Gecko/20100101 Firefox/115.0" etag="kA9nrsH1_s9P1o--DFXB" version="21.6.6" type="device">
  <diagram name="Page-1" id="VZIIqRRXdtm2IghGHygO">
    <mxGraphModel dx="794" dy="432" grid="1" gridSize="10" guides="1" tooltips="1" connect="1" arrows="1" fold="1" page="1" pageScale="1" pageWidth="1100" pageHeight="850" math="0" shadow="0">
      <root>
        <mxCell id="0" />
        <mxCell id="1" parent="0" />
        <mxCell id="bBSUMm-VQ5A8XN6FBYOb-2" value="&lt;font style=&quot;font-size: 20px;&quot;&gt;Binary Tree Nodes with Weak Parent Pointers&lt;/font&gt;" style="text;html=1;strokeColor=none;fillColor=none;align=center;verticalAlign=middle;whiteSpace=wrap;rounded=0;" vertex="1" parent="1">
          <mxGeometry width="240" height="70" as="geometry" />
        </mxCell>
        <mxCell id="bBSUMm-VQ5A8XN6FBYOb-3" value="Linearized Index 0" style="text;html=1;strokeColor=none;fillColor=none;align=center;verticalAlign=middle;whiteSpace=wrap;rounded=0;" vertex="1" parent="1">
          <mxGeometry x="351" y="80" width="60" height="30" as="geometry" />
        </mxCell>
        <mxCell id="bBSUMm-VQ5A8XN6FBYOb-4" value="Parent" style="swimlane;fontStyle=0;childLayout=stackLayout;horizontal=1;startSize=30;horizontalStack=0;resizeParent=1;resizeParentMax=0;resizeLast=0;collapsible=1;marginBottom=0;whiteSpace=wrap;html=1;" vertex="1" parent="1">
          <mxGeometry x="201" y="80" width="140" height="150" as="geometry" />
        </mxCell>
        <mxCell id="bBSUMm-VQ5A8XN6FBYOb-22" value="" style="curved=1;endArrow=classic;html=1;rounded=0;entryX=0.5;entryY=0;entryDx=0;entryDy=0;" edge="1" parent="bBSUMm-VQ5A8XN6FBYOb-4" target="bBSUMm-VQ5A8XN6FBYOb-10">
          <mxGeometry width="50" height="50" relative="1" as="geometry">
            <mxPoint x="-1" y="70" as="sourcePoint" />
            <mxPoint x="49" y="30" as="targetPoint" />
            <Array as="points">
              <mxPoint x="-61" y="80" />
            </Array>
          </mxGeometry>
        </mxCell>
        <mxCell id="bBSUMm-VQ5A8XN6FBYOb-5" value="Payload: 5" style="text;strokeColor=none;fillColor=none;align=left;verticalAlign=middle;spacingLeft=4;spacingRight=4;overflow=hidden;points=[[0,0.5],[1,0.5]];portConstraint=eastwest;rotatable=0;whiteSpace=wrap;html=1;" vertex="1" parent="bBSUMm-VQ5A8XN6FBYOb-4">
          <mxGeometry y="30" width="140" height="30" as="geometry" />
        </mxCell>
        <mxCell id="bBSUMm-VQ5A8XN6FBYOb-6" value="Left Child" style="text;strokeColor=none;fillColor=none;align=left;verticalAlign=middle;spacingLeft=4;spacingRight=4;overflow=hidden;points=[[0,0.5],[1,0.5]];portConstraint=eastwest;rotatable=0;whiteSpace=wrap;html=1;" vertex="1" parent="bBSUMm-VQ5A8XN6FBYOb-4">
          <mxGeometry y="60" width="140" height="30" as="geometry" />
        </mxCell>
        <mxCell id="bBSUMm-VQ5A8XN6FBYOb-7" value="Parent: None" style="text;strokeColor=none;fillColor=none;align=left;verticalAlign=middle;spacingLeft=4;spacingRight=4;overflow=hidden;points=[[0,0.5],[1,0.5]];portConstraint=eastwest;rotatable=0;whiteSpace=wrap;html=1;" vertex="1" parent="bBSUMm-VQ5A8XN6FBYOb-4">
          <mxGeometry y="90" width="140" height="30" as="geometry" />
        </mxCell>
        <mxCell id="bBSUMm-VQ5A8XN6FBYOb-8" value="Right Child" style="text;strokeColor=none;fillColor=none;align=left;verticalAlign=middle;spacingLeft=4;spacingRight=4;overflow=hidden;points=[[0,0.5],[1,0.5]];portConstraint=eastwest;rotatable=0;whiteSpace=wrap;html=1;" vertex="1" parent="bBSUMm-VQ5A8XN6FBYOb-4">
          <mxGeometry y="120" width="140" height="30" as="geometry" />
        </mxCell>
        <mxCell id="bBSUMm-VQ5A8XN6FBYOb-9" value="Linearized Index 1" style="text;html=1;strokeColor=none;fillColor=none;align=center;verticalAlign=middle;whiteSpace=wrap;rounded=0;" vertex="1" parent="1">
          <mxGeometry x="190" y="260" width="60" height="30" as="geometry" />
        </mxCell>
        <mxCell id="bBSUMm-VQ5A8XN6FBYOb-10" value="Left Child" style="swimlane;fontStyle=0;childLayout=stackLayout;horizontal=1;startSize=30;horizontalStack=0;resizeParent=1;resizeParentMax=0;resizeLast=0;collapsible=1;marginBottom=0;whiteSpace=wrap;html=1;" vertex="1" parent="1">
          <mxGeometry x="40" y="260" width="140" height="150" as="geometry" />
        </mxCell>
        <mxCell id="bBSUMm-VQ5A8XN6FBYOb-11" value="Payload: 5" style="text;strokeColor=none;fillColor=none;align=left;verticalAlign=middle;spacingLeft=4;spacingRight=4;overflow=hidden;points=[[0,0.5],[1,0.5]];portConstraint=eastwest;rotatable=0;whiteSpace=wrap;html=1;" vertex="1" parent="bBSUMm-VQ5A8XN6FBYOb-10">
          <mxGeometry y="30" width="140" height="30" as="geometry" />
        </mxCell>
        <mxCell id="bBSUMm-VQ5A8XN6FBYOb-21" value="" style="curved=1;endArrow=classic;html=1;rounded=0;entryX=0.007;entryY=0.087;entryDx=0;entryDy=0;entryPerimeter=0;dashed=1;" edge="1" parent="bBSUMm-VQ5A8XN6FBYOb-10" target="bBSUMm-VQ5A8XN6FBYOb-4">
          <mxGeometry width="50" height="50" relative="1" as="geometry">
            <mxPoint y="110" as="sourcePoint" />
            <mxPoint x="50" y="60" as="targetPoint" />
            <Array as="points">
              <mxPoint x="-30" y="10" />
              <mxPoint y="-130" />
            </Array>
          </mxGeometry>
        </mxCell>
        <mxCell id="bBSUMm-VQ5A8XN6FBYOb-12" value="Left Child: None" style="text;strokeColor=none;fillColor=none;align=left;verticalAlign=middle;spacingLeft=4;spacingRight=4;overflow=hidden;points=[[0,0.5],[1,0.5]];portConstraint=eastwest;rotatable=0;whiteSpace=wrap;html=1;" vertex="1" parent="bBSUMm-VQ5A8XN6FBYOb-10">
          <mxGeometry y="60" width="140" height="30" as="geometry" />
        </mxCell>
        <mxCell id="bBSUMm-VQ5A8XN6FBYOb-13" value="Parent" style="text;strokeColor=none;fillColor=none;align=left;verticalAlign=middle;spacingLeft=4;spacingRight=4;overflow=hidden;points=[[0,0.5],[1,0.5]];portConstraint=eastwest;rotatable=0;whiteSpace=wrap;html=1;" vertex="1" parent="bBSUMm-VQ5A8XN6FBYOb-10">
          <mxGeometry y="90" width="140" height="30" as="geometry" />
        </mxCell>
        <mxCell id="bBSUMm-VQ5A8XN6FBYOb-14" value="Right Child: None" style="text;strokeColor=none;fillColor=none;align=left;verticalAlign=middle;spacingLeft=4;spacingRight=4;overflow=hidden;points=[[0,0.5],[1,0.5]];portConstraint=eastwest;rotatable=0;whiteSpace=wrap;html=1;" vertex="1" parent="bBSUMm-VQ5A8XN6FBYOb-10">
          <mxGeometry y="120" width="140" height="30" as="geometry" />
        </mxCell>
        <mxCell id="bBSUMm-VQ5A8XN6FBYOb-15" value="Linearized Index 2" style="text;html=1;strokeColor=none;fillColor=none;align=center;verticalAlign=middle;whiteSpace=wrap;rounded=0;" vertex="1" parent="1">
          <mxGeometry x="520" y="260" width="60" height="30" as="geometry" />
        </mxCell>
        <mxCell id="bBSUMm-VQ5A8XN6FBYOb-16" value="Right Child" style="swimlane;fontStyle=0;childLayout=stackLayout;horizontal=1;startSize=30;horizontalStack=0;resizeParent=1;resizeParentMax=0;resizeLast=0;collapsible=1;marginBottom=0;whiteSpace=wrap;html=1;" vertex="1" parent="1">
          <mxGeometry x="370" y="260" width="140" height="150" as="geometry" />
        </mxCell>
        <mxCell id="bBSUMm-VQ5A8XN6FBYOb-17" value="Payload: 5" style="text;strokeColor=none;fillColor=none;align=left;verticalAlign=middle;spacingLeft=4;spacingRight=4;overflow=hidden;points=[[0,0.5],[1,0.5]];portConstraint=eastwest;rotatable=0;whiteSpace=wrap;html=1;" vertex="1" parent="bBSUMm-VQ5A8XN6FBYOb-16">
          <mxGeometry y="30" width="140" height="30" as="geometry" />
        </mxCell>
        <mxCell id="bBSUMm-VQ5A8XN6FBYOb-24" value="" style="curved=1;endArrow=classic;html=1;rounded=0;entryX=0.75;entryY=0;entryDx=0;entryDy=0;dashed=1;" edge="1" parent="bBSUMm-VQ5A8XN6FBYOb-16" target="bBSUMm-VQ5A8XN6FBYOb-4">
          <mxGeometry width="50" height="50" relative="1" as="geometry">
            <mxPoint y="100" as="sourcePoint" />
            <mxPoint x="50" y="50" as="targetPoint" />
            <Array as="points">
              <mxPoint x="-50" y="30" />
              <mxPoint x="100" y="-230" />
            </Array>
          </mxGeometry>
        </mxCell>
        <mxCell id="bBSUMm-VQ5A8XN6FBYOb-18" value="Left Child: None" style="text;strokeColor=none;fillColor=none;align=left;verticalAlign=middle;spacingLeft=4;spacingRight=4;overflow=hidden;points=[[0,0.5],[1,0.5]];portConstraint=eastwest;rotatable=0;whiteSpace=wrap;html=1;" vertex="1" parent="bBSUMm-VQ5A8XN6FBYOb-16">
          <mxGeometry y="60" width="140" height="30" as="geometry" />
        </mxCell>
        <mxCell id="bBSUMm-VQ5A8XN6FBYOb-19" value="Parent" style="text;strokeColor=none;fillColor=none;align=left;verticalAlign=middle;spacingLeft=4;spacingRight=4;overflow=hidden;points=[[0,0.5],[1,0.5]];portConstraint=eastwest;rotatable=0;whiteSpace=wrap;html=1;" vertex="1" parent="bBSUMm-VQ5A8XN6FBYOb-16">
          <mxGeometry y="90" width="140" height="30" as="geometry" />
        </mxCell>
        <mxCell id="bBSUMm-VQ5A8XN6FBYOb-20" value="Right Child: None" style="text;strokeColor=none;fillColor=none;align=left;verticalAlign=middle;spacingLeft=4;spacingRight=4;overflow=hidden;points=[[0,0.5],[1,0.5]];portConstraint=eastwest;rotatable=0;whiteSpace=wrap;html=1;" vertex="1" parent="bBSUMm-VQ5A8XN6FBYOb-16">
          <mxGeometry y="120" width="140" height="30" as="geometry" />
        </mxCell>
        <mxCell id="bBSUMm-VQ5A8XN6FBYOb-23" value="" style="curved=1;endArrow=classic;html=1;rounded=0;exitX=1;exitY=0.5;exitDx=0;exitDy=0;entryX=0.5;entryY=0;entryDx=0;entryDy=0;" edge="1" parent="1" source="bBSUMm-VQ5A8XN6FBYOb-8" target="bBSUMm-VQ5A8XN6FBYOb-16">
          <mxGeometry width="50" height="50" relative="1" as="geometry">
            <mxPoint x="360" y="210" as="sourcePoint" />
            <mxPoint x="410" y="160" as="targetPoint" />
            <Array as="points">
              <mxPoint x="390" y="220" />
            </Array>
          </mxGeometry>
        </mxCell>
      </root>
    </mxGraphModel>
  </diagram>
</mxfile>
